<?xml version="1.0" encoding="UTF-8" standalone="no"?>
<!-- Created with Inkscape (http://www.inkscape.org/) -->

<svg
   xmlns:dc="http://purl.org/dc/elements/1.1/"
   xmlns:cc="http://creativecommons.org/ns#"
   xmlns:rdf="http://www.w3.org/1999/02/22-rdf-syntax-ns#"
   xmlns:svg="http://www.w3.org/2000/svg"
   xmlns="http://www.w3.org/2000/svg"
   xmlns:sodipodi="http://sodipodi.sourceforge.net/DTD/sodipodi-0.dtd"
   xmlns:inkscape="http://www.inkscape.org/namespaces/inkscape"
   width="64"
   height="64"
   viewBox="0 0 64.000003 64.000001"
   id="svg2"
   version="1.1"
   inkscape:version="0.91 r13725"
   sodipodi:docname="image.svg">
  <defs
     id="defs4" />
  <sodipodi:namedview
     id="base"
     pagecolor="#ffffff"
     bordercolor="#666666"
     borderopacity="1.0"
     inkscape:pageopacity="0.0"
     inkscape:pageshadow="2"
     inkscape:zoom="6.625"
     inkscape:cx="48.287038"
     inkscape:cy="2.8053239"
     inkscape:document-units="px"
     inkscape:current-layer="layer1"
     showgrid="false"
     units="px"
     inkscape:object-nodes="false"
     inkscape:snap-smooth-nodes="true"
     inkscape:snap-intersection-paths="true"
     inkscape:snap-nodes="false"
     inkscape:window-width="1920"
     inkscape:window-height="1017"
     inkscape:window-x="-8"
     inkscape:window-y="-8"
     inkscape:window-maximized="1" />
  <metadata
     id="metadata7">
    <rdf:RDF>
      <cc:Work
         rdf:about="">
        <dc:format>image/svg+xml</dc:format>
        <dc:type
           rdf:resource="http://purl.org/dc/dcmitype/StillImage" />
        <dc:title></dc:title>
      </cc:Work>
    </rdf:RDF>
  </metadata>
  <g
     inkscape:label="Layer 1"
     inkscape:groupmode="layer"
     id="layer1"
     transform="translate(0,-988.36216)">
    <g
       id="g4423">
      <path
         inkscape:transform-center-y="1.2075472"
         inkscape:transform-center-x="17.056604"
         style="fill:#fffe58;fill-opacity:1;stroke:none;stroke-width:4;stroke-linecap:round;stroke-linejoin:miter;stroke-miterlimit:4;stroke-dasharray:none;stroke-opacity:1"
         d="m 4.2198456,1038.3301 c 0,0 37.7724704,9.2631 46.3230024,9.2631 a 9.2646213,9.2631155 0 0 0 8.022836,-4.6316 9.2646213,9.2631155 0 0 0 1.232717,-4.6315 9.2646213,9.2631155 0 0 0 -1.232717,-4.6316 9.2646213,9.2631155 0 0 0 -8.022836,-4.6315 c -8.550532,0 -46.3230024,9.2631 -46.3230024,9.2631 z"
         id="path4208"
         inkscape:connector-curvature="0" />
      <path
         sodipodi:nodetypes="ccccccc"
         inkscape:connector-curvature="0"
         id="path4279"
         d="m 4.0000001,1026.8554 c 0,0 35.1790849,16.9439 43.1303849,20.0886 3.077855,1.2171 6.571064,0.7 9.163908,-1.3564 1.271576,-1.0124 2.254357,-2.3414 2.84965,-3.8537 0.600094,-1.5103 0.792175,-3.1521 0.556952,-4.7603 -0.484964,-3.2736 -2.679589,-6.04 -5.757277,-7.2574 -7.951299,-3.1446 -49.9436179,-2.8608 -49.9436179,-2.8608 z"
         style="fill:#e24500;fill-opacity:1;stroke:none;stroke-width:4;stroke-linecap:round;stroke-linejoin:miter;stroke-miterlimit:4;stroke-dasharray:none;stroke-opacity:1"
         inkscape:transform-center-x="16.022755"
         inkscape:transform-center-y="-2.6197304" />
      <path
         sodipodi:nodetypes="ccccccc"
         inkscape:transform-center-y="-10.032987"
         inkscape:transform-center-x="11.740676"
         style="fill:#ffffcf;fill-opacity:1;stroke:none;stroke-width:4;stroke-linecap:round;stroke-linejoin:miter;stroke-miterlimit:4;stroke-dasharray:none;stroke-opacity:1"
         d="m 22.475853,1007.3045 c 0,0 15.462955,31.5291 21.509077,37.5751 2.340457,2.3402 5.751378,3.2544 8.948026,2.3981 1.569182,-0.4234 2.999273,-1.2522 4.146669,-2.4033 1.151055,-1.1474 1.979908,-2.5775 2.403326,-4.1467 0.856293,-3.1967 -0.05781,-6.6076 -2.39803,-8.948 -6.046123,-6.0461 -34.609068,-24.4752 -34.609068,-24.4752 z"
         id="path4227"
         inkscape:connector-curvature="0" />
      <path
         sodipodi:nodetypes="ccccccc"
         inkscape:connector-curvature="0"
         id="path4229"
         d="m 41.587885,1040.7329 c 0.856809,3.1969 3.353694,5.694 6.5502,6.5507 1.570982,0.4168 3.223904,0.4128 4.792786,-0.012 1.570526,-0.4181 3.003378,-1.2422 4.154674,-2.3894 2.3399,-2.3402 3.253718,-5.7513 2.397261,-8.9483 -2.213056,-8.2591 -24.644239,-42.96326 -24.644239,-42.96326 0,0 4.536263,39.50266 6.749318,47.76176 z"
         style="fill:#520900;fill-opacity:1;stroke:none;stroke-width:4;stroke-linecap:round;stroke-linejoin:miter;stroke-miterlimit:4;stroke-dasharray:none;stroke-opacity:1"
         inkscape:transform-center-x="2.6154141"
         inkscape:transform-center-y="-16.027301" />
      <path
         sodipodi:nodetypes="ccccccc"
         inkscape:connector-curvature="0"
         id="path4225"
         d="m 46.03128,1046.4246 c 2.892318,1.609 6.423142,1.5531 9.262589,-0.1467 1.393012,-0.8374 2.541125,-2.0264 3.329048,-3.4479 0.792422,-1.419 1.197505,-3.0216 1.174574,-4.6466 -0.05274,-3.3089 -1.866812,-6.3387 -4.758934,-7.948 -7.471887,-4.1572 -49.0386375,-19.9763 -49.0386375,-19.9763 0,0 32.5594755,32.0082 40.0313605,36.1655 z"
         style="fill:#fe8d00;fill-opacity:1;stroke:none;stroke-width:4;stroke-linecap:round;stroke-linejoin:miter;stroke-miterlimit:4;stroke-dasharray:none;stroke-opacity:1"
         inkscape:transform-center-x="14.984447"
         inkscape:transform-center-y="-5.1807349" />
      <path
         inkscape:connector-curvature="0"
         id="path4311"
         d="m 9.2497008,1018.5267 6.8944922,5.5476 -5.170547,-1.4666 z"
         style="fill:#ffca88;fill-opacity:1;fill-rule:evenodd;stroke:none;stroke-width:1px;stroke-linecap:butt;stroke-linejoin:miter;stroke-opacity:1" />
      <path
         inkscape:connector-curvature="0"
         id="path4311-3"
         d="m 23.003152,1014.6509 -6.894492,-5.5475 5.170547,1.4666 z"
         style="fill:#fffe58;fill-opacity:1;fill-rule:evenodd;stroke:none;stroke-width:1px;stroke-linecap:butt;stroke-linejoin:miter;stroke-opacity:1" />
      <path
         inkscape:connector-curvature="0"
         id="path4311-1"
         d="m 6.1665338,1033.9517 8.7743842,1.1488 -4.633485,-2.7234 z"
         style="fill:#520900;fill-opacity:1;fill-rule:evenodd;stroke:none;stroke-width:1px;stroke-linecap:butt;stroke-linejoin:miter;stroke-opacity:1" />
      <path
         inkscape:connector-curvature="0"
         id="path4311-6"
         d="m 31.742323,1004.3905 4.113054,7.8353 -4.15798,-3.4053 z"
         style="fill:#fe8d00;fill-opacity:1;fill-rule:evenodd;stroke:none;stroke-width:1px;stroke-linecap:butt;stroke-linejoin:miter;stroke-opacity:1" />
      <path
         sodipodi:nodetypes="ccccccc"
         inkscape:connector-curvature="0"
         id="path4225-1"
         d="m 50.537926,1044.6311 c 1.639061,0.9118 3.639958,0.88 5.249057,-0.083 0.789413,-0.4744 1.440043,-1.1484 1.886554,-1.9538 0.449061,-0.8041 0.67862,-1.7123 0.665625,-2.6332 -0.02988,-1.8752 -1.057913,-3.5922 -2.696862,-4.5042 -4.234278,-2.3558 -27.789925,-11.3205 -27.789925,-11.3205 0,0 18.451274,18.139 22.685551,20.495 z"
         style="fill:#ffffff;fill-opacity:1;stroke:none;stroke-width:4;stroke-linecap:round;stroke-linejoin:miter;stroke-miterlimit:4;stroke-dasharray:none;stroke-opacity:1"
         inkscape:transform-center-x="8.4916029"
         inkscape:transform-center-y="-2.9358312" />
    </g>
  </g>
</svg>
